<?xml version="1.0" standalone="no"?><!DOCTYPE svg PUBLIC "-//W3C//DTD SVG 1.1//EN" "http://www.w3.org/Graphics/SVG/1.1/DTD/svg11.dtd"><svg t="1575883684222" class="icon" viewBox="0 0 1024 1024" version="1.1" xmlns="http://www.w3.org/2000/svg" p-id="7199" data-spm-anchor-id="a313x.7781069.0.i6" width="200" height="200" xmlns:xlink="http://www.w3.org/1999/xlink"><defs><style type="text/css"></style></defs><path d="M0 512a512 512 0 1 0 1024 0A512 512 0 0 0 0 512z" fill="#3DAAF5" p-id="7200" data-spm-anchor-id="a313x.7781069.0.i5" class="selected"></path><path d="M320 192h238.912C696.32 192 768 258.688 768 388.672c0 133.312-68.672 196.672-209.088 196.672h-143.36V832H323.008V192H320z m92.608 81.024v194.944h137.344c41.856 0 71.68-8.96 92.608-24 17.92-14.976 29.888-38.976 29.888-74.944 0-36.032-8.96-60.032-29.888-72-17.92-15.04-50.752-24-89.6-24H412.608z" fill="#FFFFFF" p-id="7201" data-spm-anchor-id="a313x.7781069.0.i7" class="selected"></path></svg>