<svg width="1024" height="1024" xmlns="http://www.w3.org/2000/svg" class="icon">
 <defs>
  <style type="text/css"/>
 </defs>
 <g>
  <title>background</title>
  <rect fill="none" id="canvas_background" height="402" width="582" y="-1" x="-1"/>
 </g>
 <g>
  <title>Layer 1</title>
  <path id="svg_1" fill="#434448" d="m513.6,401.1l-156.3,0l0,20.2l311.3,0l0,-20.1l-155,0l0,-0.1zm0,0.1"/>
  <path id="svg_2" fill="#FF4317" d="m681.6,221.8l-10.7,-11.6l0,-8s8,3.1 8,-7l0,-50.7s-2.3,-22.8 -28.6,-38.8c-26,-15.7 -49.9,-30.7 -136.7,-33.8l-1.4,0c-86.8,3.1 -110.6,18.1 -136.6,33.9c-26.3,16 -28.7,38.8 -28.7,38.8l0,50.7c0,10.1 8.1,7 8.1,7l-0.1,8l-10.7,11.6l0,98.3l11.3,14.1s-0.4,50.2 -0.8,62.2c-0.4,11.9 18.7,9.8 18.7,9.8l278.9,0s19.1,2.1 18.7,-9.8c-0.4,-11.9 -0.8,-62.2 -0.8,-62.2l11.3,-14.1l0.1,-98.4zm0,0"/>
  <path id="svg_3" fill="#FF8C5F" d="m405,95.3s-34.2,20.5 -35.1,55.6c-0.9,35.1 0,92.7 1.5,109.6c1.5,16.9 4.7,44.4 4.7,44.4s0.3,-120.1 0.3,-142.4c-0.1,-27 2.5,-38.3 28.6,-67.2zm71.6,47.8s-40.7,-1.4 -51.5,16c-10.7,17.3 -31.8,47.9 -31.8,47.9s21.6,-44.4 32,-54c10.4,-9.5 35.3,-12 51.3,-9.9zm0,0"/>
  <path id="svg_4" fill="#FF8C5F" d="m386.1,267.2s-2,129 0,132.1c2,3.1 4.8,6.2 6.1,6.6c1.4,0.4 -8.4,1.6 -9.9,-14.8c-1.6,-16.4 0,-144.2 0,-144.2l3.8,20.3zm0,0"/>
  <path id="svg_5" fill="#242323" d="m650.8,101c-26,-17 -49.9,-33.2 -137,-36.6l-1,0c-87.1,3.3 -111,19.5 -137,36.6c-26.3,17.3 -28.7,41.8 -28.7,41.8l0,54.7c0,6.1 2.5,7.8 4.7,8l1.5,0c0.6,-0.1 1.2,-0.2 1.8,-0.4l0,-55.3s2.3,-24.6 28.6,-41.8c25.2,-16.5 48.5,-32.3 129.5,-36.3c81,4 104.2,19.7 129.5,36.3c26.3,17.3 28.7,41.8 28.7,41.8l0,55.7l0,-0.4s0.8,0.3 1.8,0.4l1.5,0c2.2,-0.3 4.7,-2 4.7,-8.1l0,-54.7c0.1,0.2 -2.3,-24.4 -28.6,-41.7zm0,0"/>
  <path id="svg_6" fill="#FF8C5F" d="m620.9,95.3s34.2,20.5 35.1,55.6c0.9,35.1 0,92.7 -1.5,109.6c-1.5,16.9 -4.7,44.4 -4.7,44.4s-0.3,-120.1 -0.3,-142.4c0.1,-27 -2.6,-38.3 -28.6,-67.2zm-71.6,47.8s40.7,-1.4 51.5,16c10.7,17.3 31.8,47.9 31.8,47.9s-21.6,-44.4 -32,-54c-10.4,-9.5 -35.3,-12 -51.3,-9.9zm0,0"/>
  <path id="svg_7" fill="#202016" d="m638.6,213.5c-6.9,-10.9 -18.3,-17.3 -37.5,-24.5c-31.9,-8.4 -78.9,-8.9 -87.5,-9c0,0 -53.7,-0.3 -88.9,9c-19.2,7.2 -30.6,13.7 -37.5,24.5c-6.9,10.9 -10.4,17.2 -7.3,48c3.1,30.8 7.3,68.6 7.3,68.6s7.9,-4.3 23.5,-5.4c14.8,-1.1 94,-3.5 102.2,-3.8c8,0.4 87.5,2.7 102.2,3.8c15.6,1.2 23.5,5.4 23.5,5.4s4.2,-37.8 7.3,-68.6c3.2,-30.9 -0.3,-37.1 -7.3,-48zm0,0"/>
  <path id="svg_8" fill="#2E3C42" d="m664.7,274.3l0,100.2s-1.2,12 -13.3,12c-12.1,0 -3.5,-40.4 -4.3,-54c-0.8,-13.6 5.8,-56 5.8,-56l11.8,-2.2zm0,0"/>
  <path id="svg_9" fill="#201E1E" d="m656.4,236.5l12.2,11.4s38,18.1 38.9,20.7c0.9,2.6 0,9.1 0,9.1l-34.2,-9.9s-5.8,1.7 -8.6,6.5c-2.8,4.9 -11.8,3.1 -11.8,3.1l3.5,-40.9zm14.3,121l3.5,0l0,27.9l-3.5,0l0,-27.9zm0,0"/>
  <path id="svg_10" fill="#FF8C5F" d="m638.6,267.2s2,129 0,132.1c-2,3.1 -4.8,6.2 -6.1,6.6c-1.4,0.4 8.4,1.6 9.9,-14.8c1.6,-16.4 0,-144.2 0,-144.2l-3.8,20.3zm0,0"/>
  <path id="svg_11" fill="#3D4852" d="m626.3,207.1c-7.1,-5 -25.4,-12.7 -53.8,-15.6c-13.5,-2.3 -58.5,-3.1 -58.5,-3.1l-2.1,0s-44.9,0.8 -58.5,3.1c-28.4,2.9 -46.7,10.6 -53.8,15.6c-7.1,5 -20.1,14.8 -17.7,41.5c2.3,26.7 7.8,78 7.8,78s15,-6.1 36.1,-6.1c20,0 81.1,-3.4 87.2,-3.7c6,0.3 67.2,3.7 87.2,3.7c21,0 36,6.1 36,6.1s5.5,-51.3 7.8,-78c2.3,-26.8 -10.7,-36.5 -17.7,-41.5zm0,0"/>
  <path id="svg_12" fill="#221F20" d="m692.3,943.9l0,-84.1c0,-7.3 -5,-5.6 -5,-5.6l-4.9,0l-169.3,-0.2l-170.3,0.2l-4.9,0s-5,-1.6 -5,5.6l0,84.1s-1.6,14.5 15.5,14.5l328.4,0c17.1,0.1 15.5,-14.5 15.5,-14.5zm0,0"/>
  <path id="svg_13" fill="#2E3C42" d="m678,419.6l-329.3,0c-6.2,0 -11.2,4.3 -11.2,9.7l0,498.4c0,5.4 5,9.7 11.2,9.7l329.3,0c6.1,0 11.1,-4.3 11.1,-9.7l0,-498.4c0,-5.4 -5,-9.7 -11.1,-9.7zm0,0"/>
  <path id="svg_14" fill="#C5E9EF" d="m509.2,427.1l-155.9,0c-4.9,0 -8.8,1.8 -8.8,4l0,492.1c0,2.2 4,4 8.8,4l155.9,0l0,-500.1zm-180.9,200.7l0,107.4l9.1,14.1l0,-133.5l-9.1,12zm0,0"/>
  <path id="svg_15" fill="#C5E9EF" d="m495.9,427.1l175.3,0c5.5,0 9.9,1.8 9.9,4l0,492.1c0,2.2 -4.4,4 -9.9,4l-175.3,0l0,-500.1zm203.5,200.7l0,107.4l-10.3,14.1l0,-133.5l10.3,12zm0,0"/>
  <path id="svg_16" fill="#566D7C" d="m382,907.8c0,2.4 -2,4.4 -4.4,4.4c-2.4,0 -4.4,-2 -4.4,-4.4l0,-463.6c0,-2.5 2,-4.4 4.4,-4.4c2.4,0 4.4,2 4.4,4.4l0,463.6zm22.4,0c0,2.4 -2,4.4 -4.4,4.4c-2.4,0 -4.4,-2 -4.4,-4.4l0,-463.6c0,-2.5 2,-4.4 4.4,-4.4c2.4,0 4.4,2 4.4,4.4l0,463.6zm24.3,0c0,2.4 -2,4.4 -4.4,4.4c-2.4,0 -4.4,-2 -4.4,-4.4l0,-463.6c0,-2.5 2,-4.4 4.4,-4.4c2.4,0 4.4,2 4.4,4.4l0,463.6zm22,0c0,2.4 -2,4.4 -4.4,4.4c-2.4,0 -4.4,-2 -4.4,-4.4l0,-463.6c0,-2.5 2,-4.4 4.4,-4.4c2.4,0 4.4,2 4.4,4.4l0,463.6zm26.4,0c0,2.4 -2,4.4 -4.4,4.4c-2.4,0 -4.4,-2 -4.4,-4.4l0,-463.6c0,-2.5 2,-4.4 4.4,-4.4c2.4,0 4.4,2 4.4,4.4l0,463.6zm23.7,-0.1c0,2.5 -2,4.4 -4.4,4.4c-2.4,0 -4.4,-2 -4.4,-4.4l0,-463.6c0,-2.5 2,-4.4 4.4,-4.4c2.4,0 4.4,2 4.4,4.4l0,463.6zm147.3,0.1c0,2.4 2,4.4 4.4,4.4c2.4,0 4.4,-2 4.4,-4.4l0,-463.6c0,-2.5 -2,-4.4 -4.4,-4.4c-2.4,0 -4.4,2 -4.4,4.4l0,463.6zm-28.8,0c0,2.4 2,4.4 4.4,4.4c2.4,0 4.4,-2 4.4,-4.4l0,-463.6c0,-2.5 -2,-4.4 -4.4,-4.4c-2.4,0 -4.4,2 -4.4,4.4l0,463.6zm-24.7,0c0,2.4 2,4.4 4.4,4.4c2.4,0 4.4,-2 4.4,-4.4l0,-463.6c0,-2.5 -2,-4.4 -4.4,-4.4c-2.4,0 -4.4,2 -4.4,4.4l0,463.6zm-26.3,0c0,2.4 2,4.4 4.4,4.4c2.4,0 4.4,-2 4.4,-4.4l0,-463.6c0,-2.5 -2,-4.4 -4.4,-4.4c-2.4,0 -4.4,2 -4.4,4.4l0,463.6zm-28.5,-0.1c0,2.5 2,4.4 4.4,4.4c2.4,0 4.4,-2 4.4,-4.4l0,-463.6c0,-2.5 -2,-4.4 -4.4,-4.4c-2.4,0 -4.4,2 -4.4,4.4l0,463.6zm-24.1,0c0,2.5 2,4.4 4.4,4.4c2.4,0 4.4,-2 4.4,-4.4l0,-463.6c0,-2.5 -2,-4.4 -4.4,-4.4c-2.4,0 -4.4,2 -4.4,4.4l0,463.6zm0,0"/>
  <path id="svg_17" fill="#FFE38A" d="m513.3,919.6l0.4,0l0,7.7l-0.4,0l0,-7.7z"/>
  <path id="svg_18" fill="#2E3C42" d="m361.3,274.2l0,99.7s1.2,11.9 13.2,11.9c12.1,0 3.6,-40.2 4.3,-53.7c0.8,-13.6 -5.8,-55.7 -5.8,-55.7l-11.7,-2.2zm0,0"/>
  <path id="svg_19" fill="#201E1E" d="m369.6,236.4l-12.2,11.4s-38,18.1 -38.9,20.7c-0.9,2.6 0,9.1 0,9.1l34.2,-9.9s5.8,1.7 8.6,6.5c2.8,4.9 11.8,3.1 11.8,3.1l-3.5,-40.9zm-17.9,121.1l3.5,0l0,27.9l-3.5,0l0,-27.9zm0,0"/>
  <path id="svg_20" fill="#303F43" d="m633.6,213.7c-2.4,-2.5 -5,-4.7 -7.9,-6.6c-7.1,-5 -25.4,-12.7 -53.8,-15.6c-13.5,-2.3 -58.5,-3.1 -58.5,-3.1l-2.1,0s-44.9,0.8 -58.5,3.1c-28.4,2.9 -46.7,10.6 -53.8,15.6c-7.1,5 -20.1,14.8 -17.7,41.5c1.2,13.6 3.2,33.5 4.9,49.8c129.3,-79.8 211.2,-87.1 247.4,-84.7zm0,0"/>
  <ellipse stroke="#000" ry="149.000005" rx="149.000005" id="svg_23" cy="668.999995" cx="514.500005" stroke-width="0" fill="#3DAAF5"/>
  <text stroke="#000" transform="matrix(10.369696890813426,0,0,10.369696890813426,-4461.191342112277,-5760.706252236894) " xml:space="preserve" text-anchor="start" font-family="Helvetica, Arial, sans-serif" font-size="24" id="svg_24" y="628.880728" x="472.546172" stroke-width="0" fill="#f9f7f7">P</text>
 </g>
</svg>
