<?xml version="1.0" standalone="no"?><!DOCTYPE svg PUBLIC "-//W3C//DTD SVG 1.1//EN" "http://www.w3.org/Graphics/SVG/1.1/DTD/svg11.dtd"><svg t="1574998776751" class="icon" viewBox="0 0 1024 1024" version="1.1" xmlns="http://www.w3.org/2000/svg" p-id="10064" xmlns:xlink="http://www.w3.org/1999/xlink" width="200" height="200"><defs><style type="text/css"></style></defs><path d="M163.1744 1024l183.3984-183.3984-250.5728-250.5728V1024h433.7152l0.128-0.128-183.2704-183.2704z" fill="#62D1A9" p-id="10065"></path><path d="M234.7008 194.3296l379.0848 379.0592L928 259.1744V256h-192V64h-640v526.0288l250.5728 250.5728 267.2128-267.2128z" fill="#62D1A9" p-id="10066"></path><path d="M529.8944 1023.872l-183.296-183.2448 267.2128-267.2128 183.296 183.2704z" fill="#59BA98" p-id="10067"></path><path d="M613.7856 573.3888l183.2704 183.296 130.944-130.9696V259.1744zM928 887.6288V625.7152l-130.944 130.9696z" fill="#62D1A9" p-id="10068"></path><path d="M529.7152 1024h0.2304l-0.1024-0.128z" fill="#59BA98" p-id="10069"></path><path d="M529.8432 1023.872l0.1024 0.128H928v-136.3712l-130.944-130.944z" fill="#59BA98" p-id="10070"></path><path d="M736 64V256h192z" fill="#C7FFEF" p-id="10071"></path><path d="M928 256h-192l97.5872 97.5872 94.4128-94.4128zM928 259.1744l-94.4128 94.4128L928 448z" fill="#59BA98" p-id="10072"></path><path d="M768 378.6752v-64H355.0464l64 64z" fill="#FFFEFE" p-id="10073"></path><path d="M355.0464 314.6752H256v64h163.0464zM552.3712 512l61.4144 61.3888L675.2 512z" fill="#FFFEFE" p-id="10074"></path><path d="M613.7856 573.3888l2.5856 2.6112H768V512h-92.8zM552.3712 512H256v64h355.2l2.5856-2.6112z" fill="#FFFEFE" p-id="10075"></path><path d="M613.7856 573.3888l-2.5856 2.6112h5.1712zM256 750.0288v23.2704h23.2448z" fill="#FFFEFE" p-id="10076"></path><path d="M256 709.2992v40.7296l23.2448 23.2704h134.6304l64-64z" fill="#FFFEFE" p-id="10077"></path><path d="M477.8752 709.2992l-64 64H768v-45.6704l-18.3296-18.3296z" fill="#CCCCCC" p-id="10078"></path><path d="M768 727.6288v-18.3296h-18.3296z" fill="#FFFEFE" p-id="10079"></path><path d="M462.0032 64h-192v165.6064l192 192.0256z" fill="#B63434" p-id="10080"></path><path d="M462.0032 448v-26.368l-192-192.0256V448l96-96z" fill="#B63434" p-id="10081"></path><path d="M366.0032 128m-128 0a128 128 0 1 0 256 0 128 128 0 1 0-256 0Z" fill="#D3711A" p-id="10082"></path><path d="M366.0032 128m-64 0a64 64 0 1 0 128 0 64 64 0 1 0-128 0Z" fill="#FCD036" p-id="10083"></path><path d="M597.888 771.5328l-53.1712 53.1712 188.288 188.288a37.632 37.632 0 0 0 53.1712-53.1712l-188.288-188.288z" fill="#22B5DD" p-id="10084"></path><path d="M602.88 563.84a187.9808 187.9808 0 0 0-265.8304 265.8304c3.456 3.456 7.0912 6.5792 10.7264 9.7024l264.8064-264.8064c-3.1232-3.6096-6.2464-7.2704-9.7024-10.7264zM347.8016 839.3984c73.856 63.36 185.1392 60.2368 255.0784-9.7024 69.9648-69.9648 73.088-181.248 9.7024-255.0784L347.8016 839.3984z" fill="#31BBF6" p-id="10085"></path><path d="M374.8864 812.2624c59.0848 48.64 146.176 46.0288 201.4208-9.1904s57.8304-142.336 9.1904-201.4208l-210.6112 210.6112zM576.3072 590.4128a150.3744 150.3744 0 1 0-212.6592 212.6592c3.5072 3.5072 7.5008 6.1184 11.2384 9.1904l210.6112-210.6112c-3.072-3.712-5.6832-7.7312-9.1904-11.2384z" fill="#8DDEFE" p-id="10086"></path></svg>