<?xml version="1.0" standalone="no"?><!DOCTYPE svg PUBLIC "-//W3C//DTD SVG 1.1//EN" "http://www.w3.org/Graphics/SVG/1.1/DTD/svg11.dtd"><svg t="1577328396380" class="icon" viewBox="0 0 1024 1024" version="1.1" xmlns="http://www.w3.org/2000/svg" p-id="2970" xmlns:xlink="http://www.w3.org/1999/xlink" width="200" height="200"><defs><style type="text/css"></style></defs><path d="M240.135211 876.890141c-7.932394 0.721127-16.585915 1.442254-25.239436 2.16338v12.980282h-11.538029V879.774648c-11.538028 0.721127-23.797183 1.442254-36.056338 2.16338l-1.442253-10.816901c12.980282-0.721127 25.960563-1.442254 37.498591-2.163381v-14.422535H170.907042l-2.884507-10.095774c5.047887-5.769014 9.374648-12.259155 13.701409-20.19155H162.974648v-10.816901H187.492958c1.442254-3.605634 2.884507-7.932394 4.32676-11.538028l12.259155 2.16338c-1.442254 2.884507-2.16338 6.490141-3.605634 9.374648h42.546479v10.816901h-47.594366c-3.605634 7.211268-7.932394 13.701408-12.259155 19.470423h20.191549v-11.538028h11.538029v11.538028h26.68169v10.095775h-26.68169v13.701408c8.653521-0.721127 17.307042-1.442254 25.239436-2.16338v11.538028z m57.690141 86.535211h-12.980282v-6.490141H196.867606v6.490141h-12.980282v-64.901408h113.216901v64.901408z m-12.980282-41.104225V908.619718H196.867606v13.701409h87.977464z m0 23.076056v-13.701408H196.867606v13.701408h87.977464z m-34.614084-51.921127l-8.653521-8.653521c7.932394-11.538028 11.538028-24.51831 12.259155-40.383098v-27.402817c21.633803-2.16338 38.219718-5.769014 50.478873-11.538028l7.932394 9.374647c-12.980282 5.769014-28.123944 9.374648-46.873239 11.538029v18.028169H317.295775v10.816901h-18.028169v37.498592h-12.259155v-37.498592h-22.35493c-2.16338 14.422535-7.211268 27.402817-14.422535 38.219718zM473.780282 813.430986v12.259155h-62.016902v11.538028c0 10.816901-0.721127 20.912676-2.16338 30.287324h77.88169v12.259155h-53.36338v60.574648c0 5.769014 2.884507 8.653521 8.653521 8.653521h21.633803c4.326761 0 7.211268-1.442254 9.374648-3.605634 2.16338-2.884507 4.326761-10.816901 5.047887-24.51831l11.538028 3.605634c-1.442254 17.307042-4.326761 27.402817-7.932394 31.008451-3.605634 2.884507-8.653521 4.326761-15.864789 4.32676h-28.123944c-11.538028 0-17.307042-5.769014-17.307042-17.307042V879.774648h-13.701408c-2.884507 15.143662-7.211268 28.123944-12.980282 38.940845-10.816901 18.749296-28.123944 33.171831-51.921127 43.988732l-7.211267-10.816901c23.797183-10.816901 40.383099-24.51831 49.757746-42.546479 4.326761-8.653521 7.211268-18.749296 9.374648-29.566197h-56.969014v-12.259155H396.619718c1.442254-9.374648 2.16338-19.470423 2.163381-30.287324v-11.538028h-49.757747v-12.259155h124.75493zM551.661972 886.264789c-1.442254 3.605634-2.16338 6.490141-3.605634 9.374648h36.056338v10.095774c-3.605634 11.538028-10.095775 21.633803-19.470422 29.566197 8.653521 3.605634 16.585915 7.932394 23.797183 11.538029l-6.490141 9.374648c-7.932394-4.326761-16.585915-9.374648-26.68169-13.701409-11.538028 7.932394-25.960563 14.422535-43.267606 19.470423l-5.769014-10.095775c14.422535-3.605634 26.68169-8.653521 36.777465-14.422535-7.932394-3.605634-15.864789-6.490141-23.797183-9.374648 4.326761-7.932394 8.653521-14.422535 12.259155-21.633803h-20.19155v-10.816901h25.239437l4.32676-10.816902 10.816902 1.442254z m-6.490141-48.315493v-33.171831h11.538028v33.171831h31.729578v10.816901h-31.729578v2.16338c9.374648 4.326761 18.749296 10.095775 28.845071 15.864789l-6.490141 9.374648c-8.653521-7.211268-15.864789-12.259155-22.35493-16.585915v22.354929h-11.538028v-33.171831c-5.769014 13.701408-15.864789 25.239437-31.008451 35.335211l-5.769014-10.095774c12.980282-7.932394 22.35493-16.585915 28.123944-25.960564H512v-10.816901h33.171831z m-10.095775-8.653521l-8.653521 4.32676c-3.605634-8.653521-7.211268-15.864789-11.538028-22.354929l10.095775-3.605634c3.605634 6.490141 7.211268 13.701408 10.095774 21.633803z m38.219719 77.160563h-29.566198c-2.884507 5.769014-5.769014 11.538028-9.374647 16.585916 7.211268 2.16338 13.701408 5.047887 19.470422 7.211267 8.653521-6.490141 15.143662-14.422535 19.470423-23.797183z m12.980281-95.188732c-3.605634 7.932394-7.932394 15.143662-12.980281 22.354929l-8.653521-4.32676c5.769014-7.211268 10.095775-14.422535 12.980281-21.633803l8.653521 3.605634z m18.749296 59.132394c-2.884507 7.932394-6.490141 15.143662-10.095775 21.633803l-7.932394-9.374648c10.095775-19.470423 17.307042-45.430986 20.912676-78.602817l12.259155 2.16338c-0.721127 8.653521-2.16338 17.307042-3.605634 24.51831h45.430986v12.259155h-11.538028c-0.721127 28.84507-6.490141 53.36338-15.864789 74.276056 8.653521 15.864789 19.470423 27.402817 31.729578 36.056338l-6.490141 10.095775c-12.259155-8.653521-22.35493-20.191549-31.008451-34.614084-8.653521 13.701408-18.749296 25.239437-31.729577 34.614084l-6.490141-10.095775c13.701408-9.374648 23.797183-21.633803 31.729577-36.056338-6.490141-14.422535-12.259155-29.566197-17.307042-46.873239z m6.490141-18.749296c4.326761 20.191549 10.095775 37.498592 16.585915 51.921127 6.490141-17.307042 10.095775-38.219718 10.816902-61.295775H612.957746l-1.442253 9.374648zM686.512676 961.261972l-2.884507-11.538028c4.326761 0.721127 8.653521 0.721127 12.980282 0.721126 4.326761 0 6.490141-2.884507 6.490141-7.211267v-42.546479c-7.211268 2.884507-13.701408 5.047887-20.19155 7.211268l-2.884507-12.259155c7.932394-2.16338 15.864789-4.326761 23.797183-7.211268v-38.940845h-20.912676v-12.259155h20.912676v-32.450704h12.259155v32.450704h16.585916v12.259155h-16.585916v33.892958c5.769014-2.16338 10.816901-5.047887 15.864789-7.932395v12.259155c-5.047887 2.884507-10.816901 5.047887-15.864789 7.932395v50.478873c0 10.095775-5.047887 15.143662-14.422535 15.143662h-15.143662z m46.152113 2.16338l-9.374648-8.653521c12.259155-23.076056 18.749296-52.642254 18.749296-88.698592v-54.084507h90.861971v41.825353H800.450704v20.191549h36.777465v11.538028H800.450704v21.633803h28.845071v56.969014h-11.538029v-8.653521h-46.873239v8.653521h-11.538028v-56.969014h28.84507v-21.633803h-35.335211c-2.16338 28.84507-8.653521 54.805634-20.191549 77.88169z m20.912676-110.332394v20.912676h34.614084v-20.191549h-34.614084z m0-30.287324v19.470422h67.064789v-19.470422h-67.064789z m64.180281 120.428169v-25.960564h-46.873239v25.960564h46.873239z" fill="#999999" p-id="2971"></path><path d="M203.357746 616.56338c5.047887 0 8.653521 3.605634 8.653522 8.653521s-3.605634 9.374648-8.653522 9.374648h-86.535211C111.774648 634.591549 108.169014 630.985915 108.169014 625.216901s3.605634-8.653521 8.653521-8.653521h86.535211z m662.715493-67.785915c5.047887 0 8.653521 3.605634 8.653522 8.653521s-3.605634 8.653521-8.653522 8.653521H715.357746v23.076056c0 25.239437-19.470423 44.709859-44.709859 44.70986h-26.68169c0 5.047887-2.884507 10.816901-6.490141 15.143662-8.653521 8.653521-22.35493 8.653521-31.00845 0l-14.422536-15.143662H248.067606c-5.047887 0-8.653521-3.605634-8.653521-8.653522s3.605634-8.653521 8.653521-8.653521h38.940845c-5.047887-7.211268-8.653521-17.307042-8.653521-26.68169v-447.098591c0-25.239437 19.470423-44.709859 44.709859-44.70986h28.123943v-23.076056c0-25.239437 19.470423-44.709859 44.70986-44.709859h349.746478c25.239437 0 44.709859 19.470423 44.70986 44.709859v446.377465c0 10.095775-3.605634 19.470423-8.653522 26.68169h84.371831z m-140.619718 0h18.749296c15.143662 0 26.68169-11.538028 26.68169-26.68169v-447.098592c0-15.143662-11.538028-26.68169-26.68169-26.68169H394.456338c-15.143662 0-26.68169 11.538028-26.68169 26.68169v23.076056h304.315493c25.239437 0 44.709859 19.470423 44.709859 44.70986V548.056338h8.653521z m-209.12676-22.35493c30.287324-30.287324 30.287324-79.323944 0-109.611267-14.422535-14.422535-33.892958-22.35493-54.084507-22.35493s-40.383099 7.932394-54.084508 22.35493c-30.287324 30.287324-30.287324 79.323944 0 109.611267 14.422535 14.422535 33.892958 22.35493 54.084508 22.35493 19.470423 0 38.940845-7.932394 54.084507-22.35493zM423.301408 444.214085c1.442254 0.721127 2.884507 3.605634 1.442254 6.49014-6.490141 10.816901-7.211268 25.239437-2.884507 36.777465 0.721127 2.884507 0 4.326761-2.884507 6.490141h-1.442254c-1.442254 0-3.605634-0.721127-4.32676-2.884507-5.047887-14.422535-4.326761-31.008451 2.884507-44.709859 1.442254-2.16338 4.326761-2.884507 7.211267-2.16338z m275.470423 145.667605v-447.098591c0-15.143662-11.538028-26.68169-26.68169-26.681691H321.622535c-15.143662 0-26.68169 11.538028-26.68169 26.681691v446.377464c0 15.143662 11.538028 26.68169 26.68169 26.681691h253.83662L550.219718 591.323944c-6.490141-6.490141-7.932394-15.143662-5.047887-23.076057l-22.35493-23.076056c-16.585915 14.422535-38.219718 22.35493-60.574647 22.35493-25.960563 0-49.03662-10.095775-67.785916-27.402817-37.498592-37.498592-37.498592-97.352113 0-134.850705 18.028169-18.028169 41.825352-27.402817 67.785916-27.402816 25.960563 0 49.03662 10.095775 67.785915 27.402816 34.614085 34.614085 36.777465 90.861972 6.490141 128.360564l23.076056 23.076056c7.932394-2.884507 16.585915-1.442254 23.076057 5.047887l54.805633 55.526761h34.614085c14.422535-0.721127 26.68169-12.259155 26.68169-27.402817zM377.149296 208.405634c-5.047887 0-8.653521-3.605634-8.653521-8.653521s3.605634-8.653521 8.653521-8.653521h155.76338c5.047887 0 8.653521 3.605634 8.653521 8.653521s-3.605634 8.653521-8.653521 8.653521H377.149296zM584.112676 247.346479c5.047887 0 8.653521 3.605634 8.653521 8.653521s-3.605634 8.653521-8.653521 8.653521H379.312676c-5.047887 0-8.653521-3.605634-8.653521-8.653521s3.605634-8.653521 8.653521-8.653521H584.112676z m-99.515493 56.969014c5.047887 0 8.653521 3.605634 8.653521 8.653521s-3.605634 8.653521-8.653521 8.653521H374.985915c-5.047887 0-8.653521-3.605634-8.653521-8.653521s3.605634-8.653521 8.653521-8.653521h109.611268zM144.946479 108.169014c10.095775 0 18.028169 7.932394 18.028169 18.028169S155.042254 144.225352 144.946479 144.225352s-18.028169-7.932394-18.028169-18.028169S134.850704 108.169014 144.946479 108.169014z m0 53.36338c19.470423 0 35.335211-15.864789 35.335211-36.056338s-15.864789-36.056338-35.335211-36.056338-35.335211 15.864789-35.335211 36.056338 15.143662 36.056338 35.335211 36.056338z m744.202817 15.143662c-5.047887 0-8.653521-3.605634-8.653521-8.653521s3.605634-8.653521 8.653521-8.653521 8.653521 3.605634 8.653521 8.653521-3.605634 8.653521-8.653521 8.653521z m0-35.335211c-15.143662 0-26.68169 11.538028-26.68169 26.68169s11.538028 26.68169 26.68169 26.68169 26.68169-11.538028 26.68169-26.68169-11.538028-26.68169-26.68169-26.68169zM238.692958 48.315493c0 5.047887 3.605634 8.653521 8.653521 8.653521s8.653521-3.605634 8.653521-8.653521V37.498592H266.816901c5.047887 0 8.653521-3.605634 8.653522-8.653522s-3.605634-8.653521-8.653522-8.653521h-10.816901V8.653521C256 3.605634 252.394366 0 247.346479 0s-8.653521 3.605634-8.653521 8.653521v10.816902h-10.816902c-5.047887 0-8.653521 3.605634-8.653521 8.653521s3.605634 8.653521 8.653521 8.653521h10.816902v11.538028z" fill="#CCCCCC" p-id="2972"></path></svg>