<?xml version="1.0" standalone="no"?><!DOCTYPE svg PUBLIC "-//W3C//DTD SVG 1.1//EN" "http://www.w3.org/Graphics/SVG/1.1/DTD/svg11.dtd"><svg t="1574998878618" class="icon" viewBox="0 0 1024 1024" version="1.1" xmlns="http://www.w3.org/2000/svg" p-id="16098" xmlns:xlink="http://www.w3.org/1999/xlink" width="200" height="200"><defs><style type="text/css"></style></defs><path d="M424 174.5h132.4c5-0.7 10 1 13.5 4.5s5.2 8.6 4.5 13.5c0.7 5-1 10-4.5 13.5s-8.6 5.2-13.5 4.5H424c-5 0.7-10-1-13.5-4.5-3.5-3.6-5.2-8.6-4.5-13.5-0.7-5 1-10 4.5-13.5s8.5-5.2 13.5-4.5zM352 403.3h276.9c4.9-0.6 9.9 1.1 13.4 4.6 3.5 3.5 5.1 8.5 4.5 13.4 0.7 5-1 10-4.5 13.5s-8.5 5.2-13.5 4.5h-277c-5 0.7-10-1-13.5-4.5s-5.2-8.6-4.5-13.5c-0.7-5 1-10.1 4.6-13.6 3.5-3.6 8.6-5.2 13.6-4.4z m0 132.4h120.4c4.9-0.6 9.9 1.1 13.3 4.6 3.5 3.5 5.1 8.5 4.5 13.4 0.7 5-1 10-4.5 13.5s-8.6 5.2-13.5 4.5H351.8c-5 0.7-10-1-13.5-4.5s-5.2-8.6-4.5-13.5c-0.7-5 1-10.1 4.6-13.6 3.5-3.5 8.6-5.2 13.6-4.4z m0 132.4h120.4c10 0 18.1 8.1 18.1 18.1 0 10-8.1 18.1-18.1 18.1H352c-10 0-18.1-8.1-18.1-18.1 0.1-10 8.1-18.1 18.1-18.1z" fill="#FCC21D" p-id="16099"></path><path d="M779.2 222.7v294.2c0 9.9-7.6 18.5-17.5 18.8-10.2 0.3-18.6-7.9-18.6-18v-290c0-9.4-7.6-17-17-17h-58.9c-11 0-20.6 7.3-23.4 17.9l-16 60.2c-2.7 10.7-12.3 18.2-23.4 18.2H376.6c-11 0-20.6-7.3-23.4-17.9l-16-60.2c-2.7-10.7-12.3-18.2-23.4-18.2h-59.2c-9.6 0-17.3 7.7-17.3 17.3v567.5c0 9.5 7.7 17.2 17.2 17.2h289.2c9.2 0 17.4 6.6 18.5 15.7 1.4 11-7.2 20.4-17.9 20.4h-295c-26.6 0-48.2-21.6-48.2-48.2V222.7c0-26.6 21.6-48.2 48.2-48.2h91.9c10.9 0 20.5 7.3 23.4 17.8l5.2 18.3 11.2 42.3c2.8 10.6 12.3 17.9 23.2 17.9h172.4c11 0 20.6-7.3 23.4-17.9l11.2-42.3 4.8-18.3c2.8-10.6 12.4-17.9 23.4-17.8H731c26.6 0 48.2 21.6 48.2 48.2z" fill="#FCC21D" p-id="16100"></path><path d="M687.8 584.5c-59.4 3-105.2 53.7-102.1 113.2 3 59.4 53.7 105.2 113.2 102.1s105.1-53.7 102-113.1c-3-59.5-53.7-105.2-113.1-102.2z m9.9 193.6c-47.4 2.4-87.9-34.1-90.3-81.5-2.4-47.4 34.1-87.9 81.5-90.3s87.9 34.1 90.3 81.5-34 87.9-81.5 90.3z" fill="#FCC21D" p-id="16101"></path><path d="M819.6 847.3c-3.8 3.4-9.6 3-13-0.8L750.2 783c-3.4-3.8-3-9.6 0.8-13 3.8-3.4 9.6-3 13 0.8l56.4 63.5c3.4 3.8 3 9.7-0.8 13z" fill="#FCC21D" p-id="16102"></path></svg>